0.11m3min_grf.mot
version=1
nRows=17
nColumns 19
inDegrees=yes
endheader
time	1_ground_force_vx	1_ground_force_vy	1_ground_force_vz	1_ground_force_px	1_ground_force_py	1_ground_force_pz	1_ground_torque_x	1_ground_torque_y	1_ground_torque_z	2_ground_force_vx	2_ground_force_vy	2_ground_force_vz	2_ground_force_px	2_ground_force_py	2_ground_force_pz	2_ground_torque_x	2_ground_torque_y	2_ground_torque_z
            2.502500	            3.424364	           32.281982	           -3.080087	           -0.297705	            0.006176	           -0.397125	           -0.003692	           -0.034800	            0.003320	            5.921781	           21.008369	            1.808694	           -0.319333	            0.005424	           -0.723663	           -0.002018	           -0.007158	           -0.000616
            2.503000	            3.333672	           31.198994	           -2.763506	           -0.299955	            0.006184	           -0.399086	            0.000006	            0.000061	           -0.000005	            5.689361	           20.456417	            1.431398	           -0.319858	            0.005394	           -0.716034	           -0.000789	           -0.002835	           -0.000198
            2.503500	            3.196212	           29.576970	           -2.861833	           -0.298613	            0.006205	           -0.403834	            0.003730	            0.034512	           -0.003339	            5.411584	           19.534660	            1.428232	           -0.320194	            0.005421	           -0.723702	            0.004183	            0.015098	            0.001104
            2.504000	            3.517993	           28.494258	           -2.592132	           -0.298484	            0.006201	           -0.402933	            0.009797	            0.079351	           -0.007219	            5.464395	           17.877662	            1.375370	           -0.331212	            0.005379	           -0.723188	           -0.018340	           -0.060004	           -0.004616
            2.504500	            3.334148	           29.215875	           -2.726152	           -0.297401	            0.006182	           -0.398543	           -0.000324	           -0.002842	            0.000265	            5.323660	           17.878661	            0.953077	           -0.318764	            0.005417	           -0.721292	           -0.003348	           -0.011243	           -0.000599
            2.505000	            3.700961	           27.593948	           -2.825731	           -0.299751	            0.006177	           -0.397394	            0.005352	            0.039902	           -0.004086	            5.235983	           16.220653	            1.041060	           -0.326265	            0.005369	           -0.715376	           -0.018409	           -0.057031	           -0.003660
            2.505500	            3.380943	           25.249646	           -2.651559	           -0.301458	            0.006207	           -0.404614	           -0.000985	           -0.007353	            0.000772	            5.235339	           16.404634	            1.088645	           -0.317431	            0.005421	           -0.721002	            0.004891	            0.015325	            0.001017
            2.506000	            2.968401	           26.871368	           -2.506011	           -0.299714	            0.006170	           -0.395733	           -0.011076	           -0.100265	            0.009351	            5.051886	           15.299402	            0.990926	           -0.323520	            0.005397	           -0.720583	           -0.000411	           -0.001244	           -0.000081
            2.506500	            3.106275	           25.609338	           -2.465907	           -0.297974	            0.006176	           -0.397042	           -0.000135	           -0.001111	            0.000107	            4.864528	           15.298391	            1.084862	           -0.317463	            0.005444	           -0.727447	            0.007330	            0.023052	            0.001635
            2.507000	            3.198077	           24.347692	           -2.517401	           -0.297993	            0.006194	           -0.401297	            0.002539	            0.019327	           -0.001998	            5.053236	           14.930938	            1.036540	           -0.316824	            0.005450	           -0.728418	           -0.008502	           -0.025122	           -0.001744
            2.507500	            3.152788	           23.806100	           -2.336183	           -0.299486	            0.006196	           -0.401844	            0.004486	            0.033871	           -0.003324	            4.683028	           13.641048	            0.891316	           -0.319221	            0.005392	           -0.714731	           -0.013934	           -0.040588	           -0.002652
            2.508000	            3.061770	           23.264302	           -2.108995	           -0.297291	            0.006182	           -0.398584	           -0.000048	           -0.000367	            0.000033	            4.730439	           13.457906	            0.655998	           -0.322052	            0.005406	           -0.721461	            0.004990	            0.014196	            0.000692
            2.508500	            3.336846	           22.543489	           -2.158625	           -0.299697	            0.006192	           -0.400825	           -0.001437	           -0.009709	            0.000930	            4.642762	           11.799898	            0.743981	           -0.324887	            0.005378	           -0.716601	           -0.010794	           -0.027433	           -0.001730
            2.509000	            3.153590	           21.281791	           -2.209437	           -0.300175	            0.006216	           -0.406506	            0.007460	            0.050342	           -0.005226	            4.591260	           13.088767	            0.748600	           -0.320267	            0.005406	           -0.719725	            0.005169	            0.014735	            0.000843
            2.509500	            2.970998	           22.001245	           -1.839042	           -0.294426	            0.006173	           -0.396269	           -0.004634	           -0.034317	            0.002869	            4.687515	           12.353349	            0.511292	           -0.313324	            0.005460	           -0.727709	            0.010604	            0.027944	            0.001157
            2.510000	            3.108056	           21.461458	           -2.070982	           -0.296292	            0.006169	           -0.395498	            0.004129	            0.028514	           -0.002752	            4.457336	           11.246944	            0.695161	           -0.315980	            0.005409	           -0.716149	           -0.013941	           -0.035175	           -0.002174
            2.510500	            3.475063	           20.019403	           -2.078076	           -0.300569	            0.006189	           -0.400218	            0.018363	            0.105790	           -0.010981	            4.321521	            9.956729	            0.878334	           -0.232311	            0.006130	           -0.833667	           -1.223413	            0.528640	           -1.034353
